<svg width="367" height="41" viewBox="0 0 367 41" fill="none" xmlns="http://www.w3.org/2000/svg">
<mask id="path-1-outside-1_2_11" maskUnits="userSpaceOnUse" x="0.227264" y="0.613647" width="367" height="40" fill="black">
<rect fill="white" x="0.227264" y="0.613647" width="367" height="40"/>
<path d="M7.65908 38H3.22726L16.0454 3.09092H20.4091L33.2273 38H28.7954L18.3636 8.61365H18.0909L7.65908 38ZM9.29545 24.3636H27.1591V28.1136H9.29545V24.3636Z"/>
<path d="M32.1023 3.09092H36.9432L46.625 19.3864H47.0341L56.7159 3.09092H61.5568L48.9432 23.6136V38H44.7159V23.6136L32.1023 3.09092Z"/>
<path d="M67.0241 3.09092H72.0696L83.9332 32.0682H84.3423L96.206 3.09092H101.251V38H97.2969V11.4773H96.956L86.0469 38H82.2287L71.3196 11.4773H70.9787V38H67.0241V3.09092Z"/>
<path d="M109.727 38V3.09092H130.795V6.84092H113.955V18.6364H129.705V22.3864H113.955V34.25H131.068V38H109.727Z"/>
<path d="M166.097 3.09092V38H162.006L142.983 10.5909H142.642V38H138.415V3.09092H142.506L161.597 30.5682H161.937V3.09092H166.097Z"/>
<path d="M186.896 38V34.9318L205.714 6.84092H186.692V3.09092H210.76V6.1591L191.942 34.25H210.964V38H186.896Z"/>
<path d="M222.283 3.09092V38H218.055V3.09092H222.283Z"/>
<path d="M260.213 20.5455C260.213 24.2273 259.548 27.4091 258.219 30.0909C256.889 32.7727 255.065 34.8409 252.747 36.2955C250.429 37.75 247.781 38.4773 244.804 38.4773C241.827 38.4773 239.179 37.75 236.861 36.2955C234.543 34.8409 232.719 32.7727 231.389 30.0909C230.06 27.4091 229.395 24.2273 229.395 20.5455C229.395 16.8636 230.06 13.6818 231.389 11C232.719 8.31819 234.543 6.25001 236.861 4.79547C239.179 3.34092 241.827 2.61365 244.804 2.61365C247.781 2.61365 250.429 3.34092 252.747 4.79547C255.065 6.25001 256.889 8.31819 258.219 11C259.548 13.6818 260.213 16.8636 260.213 20.5455ZM256.122 20.5455C256.122 17.5227 255.616 14.9716 254.605 12.8921C253.605 10.8125 252.247 9.23865 250.531 8.17047C248.827 7.10228 246.918 6.56819 244.804 6.56819C242.69 6.56819 240.776 7.10228 239.06 8.17047C237.355 9.23865 235.997 10.8125 234.986 12.8921C233.986 14.9716 233.486 17.5227 233.486 20.5455C233.486 23.5682 233.986 26.1193 234.986 28.1989C235.997 30.2784 237.355 31.8523 239.06 32.9205C240.776 33.9886 242.69 34.5227 244.804 34.5227C246.918 34.5227 248.827 33.9886 250.531 32.9205C252.247 31.8523 253.605 30.2784 254.605 28.1989C255.616 26.1193 256.122 23.5682 256.122 20.5455Z"/>
<path d="M290.23 3.09092H294.457V26.2046C294.457 28.5909 293.895 30.7216 292.77 32.5966C291.656 34.4602 290.082 35.9318 288.048 37.0114C286.014 38.0796 283.628 38.6136 280.889 38.6136C278.151 38.6136 275.764 38.0796 273.73 37.0114C271.696 35.9318 270.116 34.4602 268.991 32.5966C267.878 30.7216 267.321 28.5909 267.321 26.2046V3.09092H271.548V25.8636C271.548 27.5682 271.923 29.0852 272.673 30.4148C273.423 31.733 274.491 32.7727 275.878 33.5341C277.276 34.2841 278.946 34.6591 280.889 34.6591C282.832 34.6591 284.503 34.2841 285.901 33.5341C287.298 32.7727 288.366 31.733 289.105 30.4148C289.855 29.0852 290.23 27.5682 290.23 25.8636V3.09092Z"/>
<path d="M330.99 14H326.763C326.513 12.7841 326.075 11.7159 325.45 10.7955C324.837 9.87501 324.087 9.10228 323.2 8.47728C322.325 7.84092 321.354 7.36365 320.286 7.04547C319.217 6.72728 318.104 6.56819 316.945 6.56819C314.831 6.56819 312.916 7.10228 311.2 8.17047C309.496 9.23865 308.138 10.8125 307.126 12.8921C306.126 14.9716 305.626 17.5227 305.626 20.5455C305.626 23.5682 306.126 26.1193 307.126 28.1989C308.138 30.2784 309.496 31.8523 311.2 32.9205C312.916 33.9886 314.831 34.5227 316.945 34.5227C318.104 34.5227 319.217 34.3636 320.286 34.0455C321.354 33.7273 322.325 33.2557 323.2 32.6307C324.087 31.9943 324.837 31.2159 325.45 30.2955C326.075 29.3636 326.513 28.2955 326.763 27.0909H330.99C330.672 28.875 330.092 30.4716 329.251 31.8807C328.411 33.2898 327.365 34.4886 326.115 35.4773C324.865 36.4546 323.462 37.1989 321.905 37.7102C320.359 38.2216 318.706 38.4773 316.945 38.4773C313.967 38.4773 311.32 37.75 309.001 36.2955C306.683 34.8409 304.859 32.7727 303.53 30.0909C302.2 27.4091 301.536 24.2273 301.536 20.5455C301.536 16.8636 302.2 13.6818 303.53 11C304.859 8.31819 306.683 6.25001 309.001 4.79547C311.32 3.34092 313.967 2.61365 316.945 2.61365C318.706 2.61365 320.359 2.86933 321.905 3.38069C323.462 3.89206 324.865 4.64206 326.115 5.63069C327.365 6.60797 328.411 7.80115 329.251 9.21024C330.092 10.608 330.672 12.2046 330.99 14Z"/>
<path d="M337.821 38V3.09092H342.048V18.6364H360.662V3.09092H364.889V38H360.662V22.3864H342.048V38H337.821Z"/>
</mask>
<path d="M7.65908 38H3.22726L16.0454 3.09092H20.4091L33.2273 38H28.7954L18.3636 8.61365H18.0909L7.65908 38ZM9.29545 24.3636H27.1591V28.1136H9.29545V24.3636Z" stroke="white" stroke-width="4" mask="url(#path-1-outside-1_2_11)"/>
<path d="M32.1023 3.09092H36.9432L46.625 19.3864H47.0341L56.7159 3.09092H61.5568L48.9432 23.6136V38H44.7159V23.6136L32.1023 3.09092Z" stroke="white" stroke-width="4" mask="url(#path-1-outside-1_2_11)"/>
<path d="M67.0241 3.09092H72.0696L83.9332 32.0682H84.3423L96.206 3.09092H101.251V38H97.2969V11.4773H96.956L86.0469 38H82.2287L71.3196 11.4773H70.9787V38H67.0241V3.09092Z" stroke="white" stroke-width="4" mask="url(#path-1-outside-1_2_11)"/>
<path d="M109.727 38V3.09092H130.795V6.84092H113.955V18.6364H129.705V22.3864H113.955V34.25H131.068V38H109.727Z" stroke="white" stroke-width="4" mask="url(#path-1-outside-1_2_11)"/>
<path d="M166.097 3.09092V38H162.006L142.983 10.5909H142.642V38H138.415V3.09092H142.506L161.597 30.5682H161.937V3.09092H166.097Z" stroke="white" stroke-width="4" mask="url(#path-1-outside-1_2_11)"/>
<path d="M186.896 38V34.9318L205.714 6.84092H186.692V3.09092H210.76V6.1591L191.942 34.25H210.964V38H186.896Z" stroke="white" stroke-width="4" mask="url(#path-1-outside-1_2_11)"/>
<path d="M222.283 3.09092V38H218.055V3.09092H222.283Z" stroke="white" stroke-width="4" mask="url(#path-1-outside-1_2_11)"/>
<path d="M260.213 20.5455C260.213 24.2273 259.548 27.4091 258.219 30.0909C256.889 32.7727 255.065 34.8409 252.747 36.2955C250.429 37.75 247.781 38.4773 244.804 38.4773C241.827 38.4773 239.179 37.75 236.861 36.2955C234.543 34.8409 232.719 32.7727 231.389 30.0909C230.06 27.4091 229.395 24.2273 229.395 20.5455C229.395 16.8636 230.06 13.6818 231.389 11C232.719 8.31819 234.543 6.25001 236.861 4.79547C239.179 3.34092 241.827 2.61365 244.804 2.61365C247.781 2.61365 250.429 3.34092 252.747 4.79547C255.065 6.25001 256.889 8.31819 258.219 11C259.548 13.6818 260.213 16.8636 260.213 20.5455ZM256.122 20.5455C256.122 17.5227 255.616 14.9716 254.605 12.8921C253.605 10.8125 252.247 9.23865 250.531 8.17047C248.827 7.10228 246.918 6.56819 244.804 6.56819C242.69 6.56819 240.776 7.10228 239.06 8.17047C237.355 9.23865 235.997 10.8125 234.986 12.8921C233.986 14.9716 233.486 17.5227 233.486 20.5455C233.486 23.5682 233.986 26.1193 234.986 28.1989C235.997 30.2784 237.355 31.8523 239.06 32.9205C240.776 33.9886 242.69 34.5227 244.804 34.5227C246.918 34.5227 248.827 33.9886 250.531 32.9205C252.247 31.8523 253.605 30.2784 254.605 28.1989C255.616 26.1193 256.122 23.5682 256.122 20.5455Z" stroke="white" stroke-width="4" mask="url(#path-1-outside-1_2_11)"/>
<path d="M290.23 3.09092H294.457V26.2046C294.457 28.5909 293.895 30.7216 292.77 32.5966C291.656 34.4602 290.082 35.9318 288.048 37.0114C286.014 38.0796 283.628 38.6136 280.889 38.6136C278.151 38.6136 275.764 38.0796 273.73 37.0114C271.696 35.9318 270.116 34.4602 268.991 32.5966C267.878 30.7216 267.321 28.5909 267.321 26.2046V3.09092H271.548V25.8636C271.548 27.5682 271.923 29.0852 272.673 30.4148C273.423 31.733 274.491 32.7727 275.878 33.5341C277.276 34.2841 278.946 34.6591 280.889 34.6591C282.832 34.6591 284.503 34.2841 285.901 33.5341C287.298 32.7727 288.366 31.733 289.105 30.4148C289.855 29.0852 290.23 27.5682 290.23 25.8636V3.09092Z" stroke="white" stroke-width="4" mask="url(#path-1-outside-1_2_11)"/>
<path d="M330.99 14H326.763C326.513 12.7841 326.075 11.7159 325.45 10.7955C324.837 9.87501 324.087 9.10228 323.2 8.47728C322.325 7.84092 321.354 7.36365 320.286 7.04547C319.217 6.72728 318.104 6.56819 316.945 6.56819C314.831 6.56819 312.916 7.10228 311.2 8.17047C309.496 9.23865 308.138 10.8125 307.126 12.8921C306.126 14.9716 305.626 17.5227 305.626 20.5455C305.626 23.5682 306.126 26.1193 307.126 28.1989C308.138 30.2784 309.496 31.8523 311.2 32.9205C312.916 33.9886 314.831 34.5227 316.945 34.5227C318.104 34.5227 319.217 34.3636 320.286 34.0455C321.354 33.7273 322.325 33.2557 323.2 32.6307C324.087 31.9943 324.837 31.2159 325.45 30.2955C326.075 29.3636 326.513 28.2955 326.763 27.0909H330.99C330.672 28.875 330.092 30.4716 329.251 31.8807C328.411 33.2898 327.365 34.4886 326.115 35.4773C324.865 36.4546 323.462 37.1989 321.905 37.7102C320.359 38.2216 318.706 38.4773 316.945 38.4773C313.967 38.4773 311.32 37.75 309.001 36.2955C306.683 34.8409 304.859 32.7727 303.53 30.0909C302.2 27.4091 301.536 24.2273 301.536 20.5455C301.536 16.8636 302.2 13.6818 303.53 11C304.859 8.31819 306.683 6.25001 309.001 4.79547C311.32 3.34092 313.967 2.61365 316.945 2.61365C318.706 2.61365 320.359 2.86933 321.905 3.38069C323.462 3.89206 324.865 4.64206 326.115 5.63069C327.365 6.60797 328.411 7.80115 329.251 9.21024C330.092 10.608 330.672 12.2046 330.99 14Z" stroke="white" stroke-width="4" mask="url(#path-1-outside-1_2_11)"/>
<path d="M337.821 38V3.09092H342.048V18.6364H360.662V3.09092H364.889V38H360.662V22.3864H342.048V38H337.821Z" stroke="white" stroke-width="4" mask="url(#path-1-outside-1_2_11)"/>
</svg>
